<svg xmlns="http://www.w3.org/2000/svg" viewBox="0 0 64 64" role="img" aria-label="FuelPass favicon">
  <defs>
    <linearGradient id="bg" x1="12" y1="8" x2="52" y2="58" gradientUnits="userSpaceOnUse">
      <stop offset="0" stop-color="#2563eb"/>
      <stop offset="1" stop-color="#0f172a"/>
    </linearGradient>
    <linearGradient id="drop" x1="27" y1="12" x2="39" y2="45" gradientUnits="userSpaceOnUse">
      <stop offset="0" stop-color="#dbeafe"/>
      <stop offset="1" stop-color="#60a5fa"/>
    </linearGradient>
  </defs>
  <rect width="64" height="64" rx="14" fill="url(#bg)"/>
  <path fill="#ffffff" fill-opacity=".12" d="M8 45c11-2 15-12 25-12 8 0 12 6 23 3v20H8V45Z"/>
  <path fill="url(#drop)" d="M34 9c-7 9-15 19-15 29 0 9 7 16 15 16s15-7 15-16C49 28 41 18 34 9Z"/>
  <path fill="#0f172a" d="M34 18c-5 7-9 13-9 20 0 6 4 10 9 10s9-4 9-10c0-7-4-13-9-20Z" opacity=".2"/>
  <path fill="#fff" d="M24 31h12c2 0 4 2 4 4v10h-5v-8h-7v8h-5V32c0-.6.4-1 1-1Z"/>
  <path fill="#fff" d="M29 22h10c3 0 6 3 6 6v3h-5v-3c0-.8-.7-1.5-1.5-1.5H34V31h-5v-9Z"/>
  <path fill="#16a34a" d="M46 36h6v11c0 4-3 7-7 7h-6v-6h6c1 0 2-1 2-2V36Z"/>
  <path fill="#fbbf24" d="M47 28h5v8h-5z"/>
  <path fill="#ffffff" fill-opacity=".65" d="M24 17c-5 6-8 12-8 20 0 5 2 10 6 14-7-3-11-9-11-17 0-8 6-14 13-17Z"/>
</svg>
